<svg id="Capa_1" enable-background="new 0 0 512 512" height="512" viewBox="0 0 512 512" width="512" xmlns="http://www.w3.org/2000/svg"><g><path d="m407.614 38.567h-76.627v-28.567c0-5.523-4.478-10-10-10h-129.974c-5.522 0-10 4.477-10 10v28.567h-76.627c-14.832 0-26.899 12.067-26.899 26.899v27.329c0 5.523 4.478 10 10 10h10.826v375.84c0 18.397 14.968 33.365 33.365 33.365h248.645c18.397 0 33.365-14.968 33.365-33.365v-375.84h10.826c5.522 0 10-4.477 10-10v-27.329c0-14.832-12.068-26.899-26.9-26.899zm-206.601-18.567h109.975v18.567h-109.975zm192.675 458.635c0 7.37-5.996 13.365-13.365 13.365h-248.645c-7.369 0-13.365-5.996-13.365-13.365v-375.84h275.375zm20.826-395.84h-317.028v-17.329c0-3.804 3.095-6.899 6.899-6.899h303.229c3.805 0 6.899 3.095 6.899 6.899v17.329z"/><path d="m233.682 468h44.637c5.522 0 10-4.477 10-10v-321.205c0-5.523-4.478-10-10-10h-44.637c-5.522 0-10 4.477-10 10v321.205c0 5.523 4.477 10 10 10zm10-321.205h24.637v301.205h-24.637z"/><path d="m152.313 468h41.156c5.522 0 10-4.477 10-10v-321.205c0-5.523-4.478-10-10-10h-41.156c-5.522 0-10 4.477-10 10v321.205c0 5.523 4.477 10 10 10zm10-321.205h21.156v301.205h-21.156z"/><path d="m318.531 468h41.156c5.522 0 10-4.477 10-10v-321.205c0-5.523-4.478-10-10-10h-41.156c-5.522 0-10 4.477-10 10v321.205c0 5.523 4.478 10 10 10zm10-321.205h21.156v301.205h-21.156z"/></g></svg>